<svg width="298" height="229" viewBox="0 0 298 229" fill="none" xmlns="http://www.w3.org/2000/svg">
<path d="M100.122 1.63935L113.957 22.9878C86.5918 37.9774 70.1084 55.1611 59.9212 71.7176C49.6206 88.4584 45.7918 104.503 43.6152 116.86L43.2645 118.851L45.0597 117.921C53.7951 113.399 65.3076 111.791 76.6575 112.846L76.6578 112.846C106.233 115.584 129.517 139.856 129.517 170C129.517 185.206 123.476 199.789 112.724 210.541C101.973 221.292 87.3913 227.332 72.1868 227.333C63.7655 227.259 55.4431 225.511 47.7036 222.19C39.9647 218.87 32.9632 214.044 27.1066 207.993C10.1269 189.956 1 169.756 1 136.85C1 79.2625 41.2638 27.4878 100.122 1.63935ZM266.789 1.63936L280.624 22.9878C253.258 37.9774 236.775 55.1611 226.588 71.7176C216.287 88.4584 212.458 104.503 210.282 116.86L209.931 118.851L211.726 117.921C220.462 113.399 231.974 111.791 243.324 112.846L243.324 112.846C272.9 115.584 296.183 139.856 296.183 170C296.183 185.206 290.143 199.789 279.391 210.541C268.64 221.292 254.058 227.332 238.854 227.333C230.432 227.259 222.11 225.511 214.37 222.19C206.632 218.87 199.63 214.044 193.774 207.993C176.794 189.956 167.667 169.756 167.667 136.85C167.667 79.2625 207.93 27.4878 266.789 1.63936Z" stroke="white" stroke-width="2"/>
</svg>
